<?xml version="1.0" encoding="UTF-8"?>
<svg xmlns="http://www.w3.org/2000/svg" width="256" height="256" viewBox="0 0 256 256" role="img" aria-label="TalkInput icon">
  <defs>
    <linearGradient id="bg" x1="40" y1="32" x2="216" y2="224" gradientUnits="userSpaceOnUse">
      <stop offset="0" stop-color="#2F6FED"/>
      <stop offset="1" stop-color="#14B8A6"/>
    </linearGradient>
    <linearGradient id="mic" x1="96" y1="48" x2="160" y2="152" gradientUnits="userSpaceOnUse">
      <stop offset="0" stop-color="#FFFFFF"/>
      <stop offset="1" stop-color="#EAF2FF"/>
    </linearGradient>
  </defs>
  <rect x="16" y="16" width="224" height="224" rx="48" fill="url(#bg)"/>
  <path d="M83 123a45 45 0 0 0 90 0" fill="none" stroke="#FFFFFF" stroke-width="16" stroke-linecap="round"/>
  <rect x="94" y="44" width="68" height="106" rx="34" fill="url(#mic)"/>
  <path d="M128 166v30" stroke="#FFFFFF" stroke-width="16" stroke-linecap="round"/>
  <path d="M100 204h56" stroke="#FFFFFF" stroke-width="16" stroke-linecap="round"/>
  <path d="M188 77c13 12 21 29 21 49s-8 37-21 49" fill="none" stroke="#D7FFF8" stroke-width="12" stroke-linecap="round"/>
  <path d="M68 77c-13 12-21 29-21 49s8 37 21 49" fill="none" stroke="#D7FFF8" stroke-width="12" stroke-linecap="round"/>
  <circle cx="128" cy="97" r="11" fill="#2F6FED" opacity="0.55"/>
</svg>
